<svg width="14" height="14" viewBox="0 0 14 14" fill="none" xmlns="http://www.w3.org/2000/svg">
<path fill-rule="evenodd" clip-rule="evenodd" d="M3.53496 2.83515C4.45394 1.91618 5.70034 1.3999 6.99996 1.3999C8.29959 1.3999 9.54599 1.91618 10.465 2.83515C11.3839 3.75413 11.9002 5.00053 11.9002 6.30015C11.9002 7.59978 11.3839 8.84618 10.465 9.76515L6.99996 13.2302L3.53496 9.76515C3.0799 9.31014 2.71893 8.76995 2.47265 8.17542C2.22637 7.58089 2.09961 6.94367 2.09961 6.30015C2.09961 5.65663 2.22637 5.01942 2.47265 4.42489C2.71893 3.83036 3.0799 3.29017 3.53496 2.83515ZM6.99996 7.70015C7.37127 7.70015 7.72736 7.55265 7.98991 7.2901C8.25246 7.02755 8.39996 6.67146 8.39996 6.30015C8.39996 5.92885 8.25246 5.57275 7.98991 5.3102C7.72736 5.04765 7.37127 4.90015 6.99996 4.90015C6.62866 4.90015 6.27256 5.04765 6.01001 5.3102C5.74746 5.57275 5.59996 5.92885 5.59996 6.30015C5.59996 6.67146 5.74746 7.02755 6.01001 7.2901C6.27256 7.55265 6.62866 7.70015 6.99996 7.70015Z" fill="#DCDCDC"/>
</svg>
