<svg width="30" height="30" viewBox="0 0 30 30" fill="none" xmlns="http://www.w3.org/2000/svg">
<path d="M27.5 15C27.5 8.1 21.9 2.5 15 2.5C8.1 2.5 2.5 8.1 2.5 15C2.5 21.9 8.1 27.5 15 27.5" stroke="#212529" stroke-width="1.5" stroke-linecap="round" stroke-linejoin="round"/>
<path d="M10 3.75H11.25C8.8125 11.05 8.8125 18.95 11.25 26.25H10" stroke="#212529" stroke-width="1.5" stroke-linecap="round" stroke-linejoin="round"/>
<path d="M18.75 3.75C19.9625 7.4 20.575 11.2 20.575 15" stroke="#212529" stroke-width="1.5" stroke-linecap="round" stroke-linejoin="round"/>
<path d="M3.75 20V18.75C7.4 19.9625 11.2 20.575 15 20.575" stroke="#212529" stroke-width="1.5" stroke-linecap="round" stroke-linejoin="round"/>
<path d="M3.75 11.25C11.05 8.8125 18.95 8.8125 26.25 11.25" stroke="#212529" stroke-width="1.5" stroke-linecap="round" stroke-linejoin="round"/>
<path d="M24.3747 18.3749C23.9122 18.2374 23.3872 18.1499 22.8122 18.1499C20.2247 18.1499 18.1372 20.2499 18.1372 22.8249C18.1372 25.4124 20.2372 27.4999 22.8122 27.4999C25.3872 27.4999 27.4872 25.3999 27.4872 22.8249C27.4872 21.8624 27.1997 20.9624 26.6997 20.2249" stroke="#212529" stroke-width="1.5" stroke-linecap="round" stroke-linejoin="round"/>
<path d="M25.0498 18.4999L23.4873 16.7124" stroke="#212529" stroke-width="1.5" stroke-linecap="round" stroke-linejoin="round"/>
<path d="M25.0498 18.5L23.2247 19.825" stroke="#212529" stroke-width="1.5" stroke-linecap="round" stroke-linejoin="round"/>
</svg>
